<?xml version="1.0" encoding="UTF-8" standalone="no"?>
<svg width="16px" height="103px" viewBox="0 0 16 103" version="1.1" xmlns="http://www.w3.org/2000/svg" xmlns:xlink="http://www.w3.org/1999/xlink" xmlns:sketch="http://www.bohemiancoding.com/sketch/ns">
    <!-- Generator: Sketch 3.5.1 (25234) - http://www.bohemiancoding.com/sketch -->
    <title>menu--sprite</title>
    <desc>Created with Sketch.</desc>
    <defs></defs>
    <g id="Page-1" stroke="none" stroke-width="1" fill="none" fill-rule="evenodd" sketch:type="MSPage">
        <g id="menu--sprite" sketch:type="MSArtboardGroup">
            <path d="M1,4 L15,4 L15,2 L1,2 L1,4 Z M1,10 L15,10 L15,8 L1,8 L1,10 Z M1,16 L15,16 L15,14 L1,14 L1,16 Z" id="Shape" fill="#0078A1" sketch:type="MSShapeGroup"></path>
            <path d="M1,84 L15,84 L15,82 L1,82 L1,84 Z M1,90 L15,90 L15,88 L1,88 L1,90 Z M1,96 L15,96 L15,94 L1,94 L1,96 Z" id="Shape-Copy-2" fill="#005470" sketch:type="MSShapeGroup"></path>
        </g>
    </g>
</svg>